<mxfile host="app.diagrams.net" modified="2024-06-12T09:26:43.075Z" agent="Mozilla/5.0 (X11; Linux x86_64) AppleWebKit/537.36 (KHTML, like Gecko) Chrome/124.0.0.0 Safari/537.36" version="24.5.3" etag="uZtneaQBS5hrjtOMkgv3" type="github">
  <diagram name="페이지-1" id="ttgiD9UCJQrfTpzx94Si">
    <mxGraphModel>
      <root>
        <mxCell id="0" />
        <mxCell id="1" parent="0" />
      </root>
    </mxGraphModel>
  </diagram>
</mxfile>
